# xmcd
#
# Track frame offsets: 
#        150
#        17227
#        27925
#        41242
#        58045
#        69675
#        84960
#        100002
#        110050
#        122692
#        139662
#        151837
#
# Disc length: 2187 seconds
#
# Revision: 0
# Processed by: cddbd v1.4PL0 Copyright (c) Steve Scherf et al.
# Submitted via: ExactAudioCopy v0.90b3
#
DISCID=9d08890c
DTITLE=Conway Twitty - 36 All-Time Greatest Hits - Disc 1
DYEAR=1900
DGENRE=Country
TTITLE0=Crazy In Love
TTITLE1=Boogie Grass Band
TTITLE2=A Bridge That Just Won't Burn
TTITLE3=Don't Take It Away
TTITLE4=Darling, You Know I Wouldn't Lie
TTITLE5=(Lost Her Love) On Our Last Date
TTITLE6=I'd Love To Lay You Down
TTITLE7=It's Only Make Believe
TTITLE8=I've Already Loved You In My Mind
TTITLE9=Julia
TTITLE10=Linda On My Mind
TTITLE11=I Wonder What She'll Think About Me Leaving
EXTD=
EXTT0=
EXTT1=
EXTT2=
EXTT3=
EXTT4=
EXTT5=
EXTT6=
EXTT7=
EXTT8=
EXTT9=
EXTT10=
EXTT11=
PLAYORDER=
